<?xml version="1.0" encoding="UTF-8"?>
<svg version="1.1" viewBox="0 0 1024 1024" width="256" height="256" xmlns="http://www.w3.org/2000/svg">
<path transform="translate(964)" d="m0 0h20l11 5 6 4 5 4 6 9 4 10 1 5v11l-3 11-6 10-12 14-14 15-7 8-10 11-7 8-12 13-7 8-18 20-2 3h-2l-2 4-13 14-8 11-5 12-8 28-6 15-9 17-10 14-13 15-12 11-17 12-21 11-39 16-20 8-12 6-6 5-6 10-26 56-9 16-13 18-11 14-9 11-7 6h-11l-5-1-10 11-7 8-2 3 1 5 2 4v6l-6 10-7 7-7 8-15 16-11 12-9 10-12 13-14 15-7 8-12 13-12 14-6 9-5 17-8 16-7 11-9 10-8 8-15 10-15 7-13 5-7 7-7 8-9 10-33 36-9 10-12 13-11 12-2 3h-2l-2 4-15 16-9 10-22 24-9 10-12 13-11 12-9 10-11 12-9 10-11 12-12 13-8 8-14 9-12 5-15 3h-18l-16-5-9-4-10-6-15-14-37-37-9-12-7-14-3-11-1-7v-18l4-16 4-10 7-10 9-10 4-4h2v-2l8-7 10-9 7-4h8l6 3 4-2 8-7 5-5 7-6 1-3-2-5v-7l3-6 11-11 8-7 16-15 10-9 14-13 8-7 48-44 10-9 15-14 20-18 13-12 4-7 5-13 8-15 7-9 9-10 9-8 13-8 13-6 18-6 9-6 16-15 8-7 11-10 11-9 7-7 8-7 14-12 13-12 8-7 10-9 8-7 10-9 12-11 8-7 20-18 8-8 8-7 10-11 14-24 13-22 10-15 9-12 11-12 10-10 15-11 18-10 27-11 34-10 32-9 10-5 5-4 7-10 8-15 11-25 7-14 9-12 9-10 13-12 24-22 8-7 14-13 8-7 12-11 8-7 30-27 11-9 9-6z" fill="#030202"/>
<path transform="translate(810,198)" d="m0 0 4 2 5 4 7 8 23 23-1 5-6 11-7 11-9 11-14 14-13 9-19 10-34 14-25 10-15 8-12 11-6 8-12 23-15 33-8 16-11 16-9 12-9 11-7 10-2 9 4 7 2 3-5 4-9 11-7 8-2 3-3-3-10-2-6 3-10 10-7 8-14 15-12 13-13 14-7 8-12 13-16 17-4 5h-2l-5-15-8-15-8-11-14-14-15-10-15-7-10-4 1-4 8-7 10-9 8-7 10-9 11-9 16-15 8-7 14-12 14-13 8-7 10-9 8-7 14-13 8-7 9-9 8-7 10-11 9-14 16-28 14-22 13-16 13-13 10-7 18-10 20-8 25-8 43-12 16-8 10-8 8-10 8-13z" fill="#8B5643"/>
<path transform="translate(143,789)" d="m0 0 5 3 6 7 4 3v2h2v2h2v2h2l7 8 5 4v2h2v2h2v2h2v2l4 2 16 16v2l4 2 4 4v2l4 1 19 19v2l4 2 4 5-1 6-6 5-4 5-5 5-4 5-5 5-12 13-5 5-9 10-7 8-6 7h-2l-2 4-4 5-5 5-6 7-8 6-11 6-12 2-13-1-10-3-8-6-10-8-7-8-30-30-6-9-5-12-1-5v-13l4-14 9-11 7-6 6-7 8-6 5-6h2l2-5v-10l-2-4 1-4 7-7 8-7 6-5 1-2 4 2 3 2 11 1v-2l7-3 2-3h2l2-4 8-6z" fill="#FEC04B"/>
<path transform="translate(274,668)" d="m0 0h3l6 20 8 16 9 13 13 13 16 11 12 6 16 5 6 1-1 4h-2l-2 4-11 12-7 8-12 13-14 15-7 8-22 24-5 6h-2l-2 4-12 13-4-1-94-94 2-4 15-14 10-9 13-12 8-7 12-11 13-12 14-12 15-14z" fill="#B5388B"/>
<path transform="translate(372,575)" d="m0 0h18l14 3 14 6 10 7 8 7 5 6 7 11 4 10v4h2l2 16v11l-2 13-5 13-6 11-10 12-12 9-14 7-17 4h-20l-16-4-17-8-1-3-5-2-11-12-8-14-4-11-2-7-1-16 3-18 5-15 8-11 7-8 9-8 9-6 10-4z" fill="#FEE274"/>
<path transform="translate(371,600)" d="m0 0h19l10 3 10 6 8 6 7 10 5 12 1 4v18l-3 10-3 6-8 11-10 8-12 5-10 2-14-1-12-4-10-6-5-4-10-15-3-9-1-6v-12l3-12 6-12 11-11 13-7z" fill="#050302"/>
<path transform="translate(973,29)" d="m0 0 9 3 5 5 1 7-6 9-12 14-14 15-10 11-9 11-15 16-9 10-7 8-9 10-7 8-13 14-8 11-5 10-5 12h-2l-7-8-26-26 1-4 9-13 7-7 8-7 15-14 8-7 10-9 15-14 8-7 10-9 8-7 12-11 8-7 10-9 8-7 9-7z" fill="#6A3F29"/>
<path transform="translate(208,853)" d="m0 0 2 1v2l4 1 19 19v2l4 2 4 5-1 6-6 5-4 5-5 5-4 5-5 5-12 13-5 5-9 10-7 8-6 7h-2l-2 4-4 5-5 5-6 7-8 6-11 6-12 2-13-1-10-3-8-6-10-8-5-7h3l9-2 9-1 12-6h2v-2l8-6 6-5 5-6 10-10 10-13h2l2-4 11-11 6-7h2l2-4 4-6 6-5 8-10 6-9 2-4 2-1-1-2z" fill="#FBAB3A"/>
<path transform="translate(321,737)" d="m0 0 5 2 10 6 17 6 10 2-1 4h-2l-2 4-11 12-7 8-12 13-14 15-7 8-22 24-5 6h-2l-2 4-12 13-4-1-30-30 4-1 1-4v-2l5-5 8-7 1-2h2l2-4 9-9 7-8 12-13 22-24 4-5 7-6 6-4z" fill="#844484"/>
<path transform="translate(376,629)" d="m0 0h9l10 5 5 7 2 7-1 8-4 7-7 6-5 2h-9l-8-4-6-7-2-4v-12l4-7 7-6z" fill="#B23989"/>
<path transform="translate(230,896)" d="m0 0h2l-1 4-5 4-5 7-5 5-12 13-5 5-9 10-7 8-6 7h-2l-2 4-4 5-5 5-6 7-8 6-10 5h-5l2-2 5-1 2-4h2v-2l8-7 8-8 7-8 14-14h2l1-3 8-7 10-11 5-8h2l2-4h2l2-4 5-5z" fill="#FABB4A"/>
</svg>
